<?xml version="1.0" standalone="no"?>
<!DOCTYPE svg PUBLIC "-//W3C//DTD SVG 20010904//EN"
 "http://www.w3.org/TR/2001/REC-SVG-20010904/DTD/svg10.dtd">
<svg version="1.0" xmlns="http://www.w3.org/2000/svg"
 width="512.000000pt" height="512.000000pt" viewBox="0 0 512.000000 512.000000"
 preserveAspectRatio="xMidYMid meet">

<g transform="translate(0.000000,512.000000) scale(0.100000,-0.100000)"
fill="#000000" stroke="none">
<path d="M458 4673 c-306 -306 -449 -456 -453 -474 -4 -16 0 -39 9 -56 17 -33
1541 -1556 1573 -1572 15 -8 162 -11 468 -11 l447 0 29 29 29 29 0 447 c0 368
-2 451 -14 473 -18 33 -1542 1555 -1573 1571 -52 26 -53 26 -515 -436z m1209
-485 l723 -723 0 -367 0 -368 -368 0 -367 0 -725 725 -725 725 365 365 c201
201 367 365 370 365 3 0 330 -325 727 -722z"/>
<path d="M852 4268 l-62 -63 71 -71 71 -72 -13 -38 c-37 -111 2 -243 92 -314
99 -78 182 -80 334 -7 53 26 114 50 134 53 34 5 40 2 69 -30 45 -51 45 -111 1
-155 -24 -25 -39 -31 -73 -31 -23 0 -51 6 -62 14 -19 14 -25 11 -84 -49 l-63
-64 48 -30 c71 -45 142 -57 224 -37 l65 16 63 -62 63 -63 62 63 63 62 -63 63
-63 63 17 64 c28 112 -11 224 -102 294 -96 74 -177 75 -329 3 -142 -66 -156
-68 -200 -24 -38 38 -47 86 -24 130 27 54 108 76 155 43 19 -14 25 -11 84 49
l63 64 -48 30 c-71 45 -142 57 -224 37 l-65 -16 -71 70 -70 70 -63 -62z"/>
<path d="M1939 3223 c-56 -35 -76 -116 -43 -173 65 -108 234 -61 234 65 0 97
-110 159 -191 108z"/>
<path d="M3825 4540 l-580 -580 -3 -307 c-2 -208 0 -320 8 -346 19 -66 34 -68
396 -65 l314 3 575 575 c317 316 578 585 581 597 3 12 3 32 -1 45 -8 27 -598
623 -637 644 -15 8 -37 14 -50 14 -17 0 -175 -152 -603 -580z"/>
<path d="M3160 2985 l0 -85 85 0 85 0 0 85 0 85 -85 0 -85 0 0 -85z"/>
<path d="M3160 2645 l0 -85 85 0 85 0 0 85 0 85 -85 0 -85 0 0 -85z"/>
<path d="M4671 2471 c-13 -3 -32 -18 -42 -31 -10 -14 -142 -361 -294 -772
-151 -411 -281 -763 -289 -783 l-15 -35 -866 0 -866 0 3 -82 3 -83 213 -3 212
-2 0 -94 c0 -90 -1 -94 -24 -100 -31 -8 -99 -76 -122 -124 -25 -51 -25 -164 0
-212 25 -49 74 -98 121 -123 63 -33 164 -30 232 7 172 95 178 330 11 438 l-48
31 0 89 0 88 385 0 385 0 0 -88 0 -89 -50 -32 c-56 -36 -84 -71 -105 -132 -43
-120 16 -258 133 -315 54 -27 164 -25 217 3 47 25 96 74 121 123 27 51 25 162
-3 216 -28 52 -78 103 -115 116 -28 10 -28 10 -28 103 l0 93 145 4 c131 3 146
5 165 24 13 13 132 321 310 805 l288 784 184 5 183 5 0 85 0 85 -210 2 c-115
0 -221 -2 -234 -6z m-1797 -2157 c33 -33 34 -74 2 -110 -44 -52 -126 -30 -141
36 -18 81 80 133 139 74z m927 13 c66 -51 35 -151 -48 -151 -61 0 -100 63 -71
117 17 32 39 46 73 46 17 0 37 -5 46 -12z"/>
<path d="M1710 2305 l0 -85 85 0 85 0 0 85 0 85 -85 0 -85 0 0 -85z"/>
<path d="M2094 2378 c-23 -11 -44 -47 -44 -76 0 -9 81 -289 181 -622 144 -484
185 -610 205 -630 l24 -25 690 0 690 0 24 25 c18 19 66 159 204 605 99 319
185 596 190 616 11 42 -5 91 -37 108 -27 15 -2097 14 -2127 -1z m1964 -170
c-3 -7 -74 -237 -159 -510 l-154 -498 -595 0 -595 0 -138 463 c-75 254 -144
483 -152 510 l-14 47 906 0 c720 0 904 -3 901 -12z"/>
<path d="M2640 1880 l0 -90 515 0 515 0 0 90 0 90 -515 0 -515 0 0 -90z"/>
<path d="M2730 1540 l0 -90 430 0 431 0 -3 88 -3 87 -427 3 -428 2 0 -90z"/>
<path d="M1710 1965 l0 -85 85 0 85 0 0 85 0 85 -85 0 -85 0 0 -85z"/>
<path d="M995 1700 c-11 -4 -239 -228 -507 -497 -358 -358 -488 -495 -488
-511 0 -13 6 -35 14 -50 18 -33 602 -615 634 -632 13 -6 35 -9 50 -5 19 4 182
160 517 495 l490 490 3 308 c2 208 0 319 -8 345 -19 64 -34 67 -382 66 -167 0
-312 -4 -323 -9z m535 -407 l0 -238 -422 -422 -423 -423 -237 237 -238 238
422 422 423 423 237 0 238 0 0 -237z"/>
<path d="M965 1232 c-85 -28 -137 -97 -143 -187 -4 -56 0 -72 28 -130 34 -71
34 -98 -2 -93 -17 2 -24 11 -26 34 -2 22 -20 47 -62 89 -58 57 -60 59 -75 40
-47 -59 -58 -150 -26 -220 72 -159 299 -167 376 -12 35 72 33 125 -9 213 -36
75 -35 98 5 92 19 -2 24 -9 24 -31 1 -20 17 -44 60 -87 33 -33 62 -60 66 -60
4 0 19 23 33 52 57 115 10 244 -106 292 -38 16 -106 20 -143 8z"/>
</g>
</svg>
